<?xml version="1.0" standalone="no"?>
<!DOCTYPE svg PUBLIC "-//W3C//DTD SVG 20010904//EN"
 "http://www.w3.org/TR/2001/REC-SVG-20010904/DTD/svg10.dtd">
<svg version="1.0" xmlns="http://www.w3.org/2000/svg"
 width="700.000000pt" height="700.000000pt" viewBox="0 0 700.000000 700.000000"
 preserveAspectRatio="xMidYMid meet">
<metadata>
Created by potrace 1.14, written by Peter Selinger 2001-2017
</metadata>
<g transform="translate(0.000000,700.000000) scale(0.100000,-0.100000)"
fill="#000000" stroke="none">
<path d="M2550 6697 c-91 -25 -148 -74 -191 -164 -21 -43 -24 -63 -26 -203 -1
-85 -2 -166 -2 -180 l-1 -25 -312 0 c-172 0 -342 -3 -378 -8 -335 -42 -620
-280 -723 -602 -34 -105 -40 -181 -42 -510 -2 -181 -3 -332 -4 -335 -1 -3 -81
-5 -179 -5 -177 0 -177 0 -236 -30 -186 -94 -219 -351 -62 -480 76 -62 102
-69 291 -71 94 -1 175 -3 180 -3 7 -1 10 -199 10 -582 l0 -581 -180 -2 c-159
-2 -185 -4 -226 -23 -189 -85 -235 -333 -88 -475 72 -70 111 -81 294 -84 88
-2 169 -3 180 -3 20 -1 20 -8 21 -324 0 -344 4 -393 36 -502 90 -311 343 -544
663 -611 63 -13 147 -17 405 -19 179 -2 332 -3 340 -4 13 -1 15 -27 16 -169 1
-189 3 -207 38 -267 116 -198 413 -184 513 23 26 55 27 64 28 230 1 95 5 175
9 179 11 11 1147 10 1154 -1 3 -5 6 -86 7 -180 1 -135 5 -179 19 -210 74 -175
291 -237 443 -127 98 71 119 135 119 353 -1 93 1 168 4 169 3 1 158 2 345 4
225 1 357 7 390 15 28 6 59 13 70 15 33 4 152 52 202 82 190 109 332 279 398
478 43 126 51 216 50 553 l0 312 25 1 c14 0 95 1 180 3 146 2 158 4 212 30
227 108 216 431 -18 533 -31 13 -75 17 -214 19 -96 1 -177 3 -180 3 -8 1 -6
1149 2 1157 4 4 85 7 181 8 168 2 175 2 231 30 221 108 214 427 -13 529 -40
18 -69 21 -219 23 -95 1 -176 5 -180 8 -4 4 -7 152 -8 329 -1 338 -3 368 -34
484 -38 140 -107 261 -214 371 -135 140 -278 215 -496 258 -19 4 -184 7 -367
8 -182 1 -335 5 -339 8 -4 4 -7 85 -8 181 -2 167 -2 175 -29 230 -107 218
-417 217 -524 -1 -27 -55 -27 -60 -28 -237 l0 -180 -577 0 c-317 0 -580 3
-584 8 -4 4 -8 82 -10 175 -2 188 -1 180 -34 245 -58 116 -204 180 -330 144z
m2780 -1167 c90 -25 176 -112 201 -203 11 -40 14 -3584 4 -3641 -15 -76 -71
-150 -147 -191 l-53 -30 -1814 -3 c-1168 -1 -1826 1 -1850 8 -92 25 -177 110
-202 204 -12 45 -15 3593 -3 3643 24 98 105 184 204 214 38 11 3618 11 3660
-1z"/>
<path d="M2857 4664 c-1 -1 -20 -5 -42 -8 -57 -6 -151 -43 -214 -83 -123 -79
-229 -234 -255 -376 -14 -75 -15 -1334 -2 -1397 40 -184 174 -347 345 -419 53
-23 61 -25 136 -40 45 -8 1322 -7 1370 2 180 33 359 180 426 350 44 111 46
149 44 833 -2 714 -1 702 -66 827 -37 71 -49 87 -119 155 -72 69 -165 120
-275 148 -27 7 -1341 15 -1348 8z m1218 -586 c14 -9 12 -1148 -2 -1156 -8 -5
-1126 -8 -1153 -3 -7 1 -5 1145 2 1156 7 11 1137 13 1153 3z"/>
</g>
</svg>
